<mxfile host="app.diagrams.net" modified="2023-05-01T21:58:19.862Z" agent="Mozilla/5.0 (Windows NT 10.0; Win64; x64) AppleWebKit/537.36 (KHTML, like Gecko) Chrome/112.0.0.0 Safari/537.36" etag="fncy-QBckWTAI4w_UrFe" version="21.2.3" type="github">
  <diagram name="Страница 1" id="sUJPOYuMk0gi_zjjN289">
    <mxGraphModel dx="2147" dy="2917" grid="1" gridSize="10" guides="1" tooltips="1" connect="1" arrows="1" fold="1" page="1" pageScale="1" pageWidth="827" pageHeight="1169" math="0" shadow="0">
      <root>
        <mxCell id="0" />
        <mxCell id="1" parent="0" />
        <mxCell id="L-fSFMzXYgNjUHeJhhS1-3" value="Aдминистратор домена" style="shape=umlActor;verticalLabelPosition=bottom;verticalAlign=top;html=1;outlineConnect=0;" vertex="1" parent="1">
          <mxGeometry x="360" y="362.5" width="52.5" height="105" as="geometry" />
        </mxCell>
        <mxCell id="L-fSFMzXYgNjUHeJhhS1-14" style="edgeStyle=orthogonalEdgeStyle;rounded=0;orthogonalLoop=1;jettySize=auto;html=1;exitX=0;exitY=0.5;exitDx=0;exitDy=0;dashed=1;entryX=0;entryY=0;entryDx=0;entryDy=0;" edge="1" parent="1" source="L-fSFMzXYgNjUHeJhhS1-29" target="L-fSFMzXYgNjUHeJhhS1-17">
          <mxGeometry relative="1" as="geometry">
            <Array as="points">
              <mxPoint x="548" y="-25" />
            </Array>
            <mxPoint x="480.00000000000045" y="-53.54101966249664" as="targetPoint" />
          </mxGeometry>
        </mxCell>
        <mxCell id="L-fSFMzXYgNjUHeJhhS1-15" style="edgeStyle=orthogonalEdgeStyle;rounded=0;orthogonalLoop=1;jettySize=auto;html=1;exitX=0;exitY=0.5;exitDx=0;exitDy=0;endArrow=none;endFill=0;" edge="1" parent="1" source="L-fSFMzXYgNjUHeJhhS1-16">
          <mxGeometry relative="1" as="geometry">
            <mxPoint x="410" y="420" as="targetPoint" />
            <Array as="points">
              <mxPoint x="530" y="290" />
              <mxPoint x="530" y="420" />
            </Array>
          </mxGeometry>
        </mxCell>
        <mxCell id="L-fSFMzXYgNjUHeJhhS1-16" value="Создание блоков" style="html=1;overflow=block;blockSpacing=1;whiteSpace=wrap;ellipse;fontSize=13;spacing=3.8;strokeColor=#3a414a;strokeOpacity=100;rounded=1;absoluteArcSize=1;arcSize=9;strokeWidth=0.8;lucidId=YT7TCHDm60Qj;" vertex="1" parent="1">
          <mxGeometry x="650" y="245" width="120" height="90" as="geometry" />
        </mxCell>
        <mxCell id="L-fSFMzXYgNjUHeJhhS1-17" value="Редактирование блоков" style="html=1;overflow=block;blockSpacing=1;whiteSpace=wrap;ellipse;fontSize=13;spacing=3.8;strokeColor=#3a414a;strokeOpacity=100;rounded=1;absoluteArcSize=1;arcSize=9;strokeWidth=0.8;lucidId=iU7T-DrnD_am;" vertex="1" parent="1">
          <mxGeometry x="530" y="110" width="120" height="90" as="geometry" />
        </mxCell>
        <mxCell id="L-fSFMzXYgNjUHeJhhS1-18" value="Выбор блока из шаблонов" style="html=1;overflow=block;blockSpacing=1;whiteSpace=wrap;ellipse;fontSize=13;spacing=3.8;strokeColor=#3a414a;strokeOpacity=100;rounded=1;absoluteArcSize=1;arcSize=9;strokeWidth=0.8;lucidId=AU7TzXfY.7xf;" vertex="1" parent="1">
          <mxGeometry x="860" y="245" width="120" height="90" as="geometry" />
        </mxCell>
        <mxCell id="L-fSFMzXYgNjUHeJhhS1-19" value="Настройка стилей" style="html=1;overflow=block;blockSpacing=1;whiteSpace=wrap;ellipse;fontSize=13;spacing=3.8;strokeColor=#3a414a;strokeOpacity=100;rounded=1;absoluteArcSize=1;arcSize=9;strokeWidth=0.8;lucidId=IU7TJlUC40Fu;" vertex="1" parent="1">
          <mxGeometry x="845" y="365" width="120" height="90" as="geometry" />
        </mxCell>
        <mxCell id="L-fSFMzXYgNjUHeJhhS1-20" value="Настройка информации в блоке" style="html=1;overflow=block;blockSpacing=1;whiteSpace=wrap;ellipse;fontSize=13;spacing=3.8;strokeColor=#3a414a;strokeOpacity=100;rounded=1;absoluteArcSize=1;arcSize=9;strokeWidth=0.8;lucidId=SU7TMqAiPC0k;" vertex="1" parent="1">
          <mxGeometry x="845" y="125" width="120" height="90" as="geometry" />
        </mxCell>
        <mxCell id="L-fSFMzXYgNjUHeJhhS1-21" value="" style="html=1;jettySize=18;whiteSpace=wrap;fontSize=13;strokeColor=#3a414a;strokeOpacity=100;dashed=1;fixDash=1;strokeWidth=0.8;rounded=1;arcSize=12;edgeStyle=orthogonalEdgeStyle;startArrow=none;endArrow=block;endFill=1;exitX=1.003;exitY=0.5;exitPerimeter=0;entryX=-0.003;entryY=0.5;entryPerimeter=0;lucidId=yW7TTUJK7UnX;" edge="1" parent="1" source="L-fSFMzXYgNjUHeJhhS1-16" target="L-fSFMzXYgNjUHeJhhS1-18">
          <mxGeometry width="100" height="100" relative="1" as="geometry">
            <Array as="points" />
          </mxGeometry>
        </mxCell>
        <mxCell id="L-fSFMzXYgNjUHeJhhS1-22" value="" style="html=1;jettySize=18;whiteSpace=wrap;fontSize=13;strokeColor=#3a414a;strokeOpacity=100;dashed=1;fixDash=1;strokeWidth=0.8;rounded=1;arcSize=12;edgeStyle=orthogonalEdgeStyle;startArrow=none;endArrow=block;endFill=1;exitX=0.5;exitY=-0.004;exitPerimeter=0;entryX=-0.003;entryY=0.5;entryPerimeter=0;lucidId=_W7TPJHKdDei;" edge="1" parent="1" source="L-fSFMzXYgNjUHeJhhS1-16" target="L-fSFMzXYgNjUHeJhhS1-20">
          <mxGeometry width="100" height="100" relative="1" as="geometry">
            <Array as="points" />
          </mxGeometry>
        </mxCell>
        <mxCell id="L-fSFMzXYgNjUHeJhhS1-23" value="" style="html=1;jettySize=18;whiteSpace=wrap;fontSize=13;strokeColor=#3a414a;strokeOpacity=100;dashed=1;fixDash=1;strokeWidth=0.8;rounded=1;arcSize=12;edgeStyle=orthogonalEdgeStyle;startArrow=none;endArrow=block;endFill=1;exitX=0.5;exitY=1.004;exitPerimeter=0;entryX=-0.003;entryY=0.5;entryPerimeter=0;lucidId=eX7TY1OJRFkU;" edge="1" parent="1" source="L-fSFMzXYgNjUHeJhhS1-16" target="L-fSFMzXYgNjUHeJhhS1-19">
          <mxGeometry width="100" height="100" relative="1" as="geometry">
            <Array as="points" />
          </mxGeometry>
        </mxCell>
        <mxCell id="L-fSFMzXYgNjUHeJhhS1-24" value="" style="html=1;jettySize=18;whiteSpace=wrap;fontSize=13;strokeColor=#3a414a;strokeOpacity=100;strokeWidth=0.8;rounded=0;startArrow=none;endArrow=block;endFill=0;exitX=0.853;exitY=0.859;exitPerimeter=0;entryX=0.206;entryY=0.091;entryPerimeter=0;lucidId=uX7T4NkY_U0I;" edge="1" parent="1" source="L-fSFMzXYgNjUHeJhhS1-17" target="L-fSFMzXYgNjUHeJhhS1-16">
          <mxGeometry width="100" height="100" relative="1" as="geometry">
            <Array as="points" />
          </mxGeometry>
        </mxCell>
        <mxCell id="L-fSFMzXYgNjUHeJhhS1-25" style="edgeStyle=orthogonalEdgeStyle;rounded=0;orthogonalLoop=1;jettySize=auto;html=1;exitX=0;exitY=0.5;exitDx=0;exitDy=0;dashed=1;entryX=1;entryY=0;entryDx=0;entryDy=0;" edge="1" parent="1" source="L-fSFMzXYgNjUHeJhhS1-26" target="L-fSFMzXYgNjUHeJhhS1-17">
          <mxGeometry relative="1" as="geometry">
            <Array as="points">
              <mxPoint x="710" y="75" />
              <mxPoint x="710" y="70" />
              <mxPoint x="632" y="70" />
            </Array>
            <mxPoint x="440.00000000000006" y="29.960000000000036" as="targetPoint" />
          </mxGeometry>
        </mxCell>
        <mxCell id="L-fSFMzXYgNjUHeJhhS1-26" value="Синхронизация блока с вариацией" style="html=1;overflow=block;blockSpacing=1;whiteSpace=wrap;ellipse;fontSize=13;spacing=3.8;strokeColor=#3a414a;strokeOpacity=100;rounded=1;absoluteArcSize=1;arcSize=9;strokeWidth=0.8;lucidId=AU7TzXfY.7xf;" vertex="1" parent="1">
          <mxGeometry x="697" y="30" width="120" height="90" as="geometry" />
        </mxCell>
        <mxCell id="L-fSFMzXYgNjUHeJhhS1-29" value="Пересборка страницы с измененным блоком" style="html=1;overflow=block;blockSpacing=1;whiteSpace=wrap;ellipse;fontSize=13;spacing=3.8;strokeColor=#3a414a;strokeOpacity=100;rounded=1;absoluteArcSize=1;arcSize=9;strokeWidth=0.8;lucidId=SU7TMqAiPC0k;" vertex="1" parent="1">
          <mxGeometry x="710" y="-70" width="120" height="90" as="geometry" />
        </mxCell>
        <mxCell id="L-fSFMzXYgNjUHeJhhS1-101" style="edgeStyle=orthogonalEdgeStyle;rounded=0;orthogonalLoop=1;jettySize=auto;html=1;exitX=0.5;exitY=0;exitDx=0;exitDy=0;endArrow=none;endFill=0;" edge="1" parent="1" source="L-fSFMzXYgNjUHeJhhS1-40">
          <mxGeometry relative="1" as="geometry">
            <mxPoint x="310" y="460" as="targetPoint" />
            <Array as="points">
              <mxPoint x="160" y="460" />
            </Array>
          </mxGeometry>
        </mxCell>
        <mxCell id="L-fSFMzXYgNjUHeJhhS1-40" value="Выбор события для домена" style="html=1;overflow=block;blockSpacing=1;whiteSpace=wrap;ellipse;fontSize=13;spacing=3.8;strokeColor=#3a414a;strokeOpacity=100;rounded=1;absoluteArcSize=1;arcSize=9;strokeWidth=0.8;lucidId=YT7TCHDm60Qj;" vertex="1" parent="1">
          <mxGeometry x="110" y="550" width="120" height="90" as="geometry" />
        </mxCell>
        <mxCell id="L-fSFMzXYgNjUHeJhhS1-61" value="включает." style="text;html=1;align=center;verticalAlign=middle;resizable=0;points=[];autosize=1;strokeColor=none;fillColor=none;" vertex="1" parent="1">
          <mxGeometry x="730" y="380" width="80" height="30" as="geometry" />
        </mxCell>
        <mxCell id="L-fSFMzXYgNjUHeJhhS1-62" value="включает." style="text;html=1;align=center;verticalAlign=middle;resizable=0;points=[];autosize=1;strokeColor=none;fillColor=none;" vertex="1" parent="1">
          <mxGeometry x="770" y="265" width="80" height="30" as="geometry" />
        </mxCell>
        <mxCell id="L-fSFMzXYgNjUHeJhhS1-63" value="включает." style="text;html=1;align=center;verticalAlign=middle;resizable=0;points=[];autosize=1;strokeColor=none;fillColor=none;" vertex="1" parent="1">
          <mxGeometry x="730" y="145" width="80" height="30" as="geometry" />
        </mxCell>
        <mxCell id="L-fSFMzXYgNjUHeJhhS1-66" value="расширяет" style="text;html=1;align=center;verticalAlign=middle;resizable=0;points=[];autosize=1;strokeColor=none;fillColor=none;" vertex="1" parent="1">
          <mxGeometry x="617" y="40" width="80" height="30" as="geometry" />
        </mxCell>
        <mxCell id="L-fSFMzXYgNjUHeJhhS1-76" value="расширяет" style="text;html=1;align=center;verticalAlign=middle;resizable=0;points=[];autosize=1;strokeColor=none;fillColor=none;" vertex="1" parent="1">
          <mxGeometry x="580" y="-50" width="80" height="30" as="geometry" />
        </mxCell>
        <mxCell id="L-fSFMzXYgNjUHeJhhS1-99" style="edgeStyle=orthogonalEdgeStyle;rounded=0;orthogonalLoop=1;jettySize=auto;html=1;exitX=0.5;exitY=1;exitDx=0;exitDy=0;dashed=1;entryX=1;entryY=0.5;entryDx=0;entryDy=0;" edge="1" parent="1" source="L-fSFMzXYgNjUHeJhhS1-80" target="L-fSFMzXYgNjUHeJhhS1-82">
          <mxGeometry relative="1" as="geometry">
            <mxPoint x="30" y="420" as="targetPoint" />
            <Array as="points">
              <mxPoint x="183" y="395" />
            </Array>
          </mxGeometry>
        </mxCell>
        <mxCell id="L-fSFMzXYgNjUHeJhhS1-100" style="edgeStyle=orthogonalEdgeStyle;rounded=0;orthogonalLoop=1;jettySize=auto;html=1;exitX=1;exitY=0.5;exitDx=0;exitDy=0;endArrow=none;endFill=0;" edge="1" parent="1" source="L-fSFMzXYgNjUHeJhhS1-80">
          <mxGeometry relative="1" as="geometry">
            <mxPoint x="330" y="420" as="targetPoint" />
            <Array as="points">
              <mxPoint x="331" y="270" />
            </Array>
          </mxGeometry>
        </mxCell>
        <mxCell id="L-fSFMzXYgNjUHeJhhS1-80" value="Создание страниц" style="html=1;overflow=block;blockSpacing=1;whiteSpace=wrap;ellipse;fontSize=13;spacing=3.8;strokeColor=#3a414a;strokeOpacity=100;rounded=1;absoluteArcSize=1;arcSize=9;strokeWidth=0.8;lucidId=YT7TCHDm60Qj;" vertex="1" parent="1">
          <mxGeometry x="122.5" y="225" width="120" height="90" as="geometry" />
        </mxCell>
        <mxCell id="L-fSFMzXYgNjUHeJhhS1-81" value="Редактирование страниц" style="html=1;overflow=block;blockSpacing=1;whiteSpace=wrap;ellipse;fontSize=13;spacing=3.8;strokeColor=#3a414a;strokeOpacity=100;rounded=1;absoluteArcSize=1;arcSize=9;strokeWidth=0.8;lucidId=iU7T-DrnD_am;" vertex="1" parent="1">
          <mxGeometry x="110" y="85" width="120" height="90" as="geometry" />
        </mxCell>
        <mxCell id="L-fSFMzXYgNjUHeJhhS1-82" value="Выбор блоков" style="html=1;overflow=block;blockSpacing=1;whiteSpace=wrap;ellipse;fontSize=13;spacing=3.8;strokeColor=#3a414a;strokeOpacity=100;rounded=1;absoluteArcSize=1;arcSize=9;strokeWidth=0.8;lucidId=AU7TzXfY.7xf;" vertex="1" parent="1">
          <mxGeometry x="-110" y="350" width="120" height="90" as="geometry" />
        </mxCell>
        <mxCell id="L-fSFMzXYgNjUHeJhhS1-83" value="Заполнение информации о странице" style="html=1;overflow=block;blockSpacing=1;whiteSpace=wrap;ellipse;fontSize=13;spacing=3.8;strokeColor=#3a414a;strokeOpacity=100;rounded=1;absoluteArcSize=1;arcSize=9;strokeWidth=0.8;lucidId=IU7TJlUC40Fu;" vertex="1" parent="1">
          <mxGeometry x="-110" y="225" width="120" height="90" as="geometry" />
        </mxCell>
        <mxCell id="L-fSFMzXYgNjUHeJhhS1-87" value="" style="html=1;jettySize=18;whiteSpace=wrap;fontSize=13;strokeColor=#3a414a;strokeOpacity=100;dashed=1;fixDash=1;strokeWidth=0.8;rounded=1;arcSize=12;edgeStyle=orthogonalEdgeStyle;startArrow=none;endArrow=block;endFill=1;entryX=1;entryY=0.5;lucidId=eX7TY1OJRFkU;entryDx=0;entryDy=0;exitX=0;exitY=0.5;exitDx=0;exitDy=0;" edge="1" parent="1" source="L-fSFMzXYgNjUHeJhhS1-80" target="L-fSFMzXYgNjUHeJhhS1-83">
          <mxGeometry width="100" height="100" relative="1" as="geometry">
            <Array as="points" />
            <mxPoint x="-136" y="10" as="sourcePoint" />
          </mxGeometry>
        </mxCell>
        <mxCell id="L-fSFMzXYgNjUHeJhhS1-88" value="" style="html=1;jettySize=18;whiteSpace=wrap;fontSize=13;strokeColor=#3a414a;strokeOpacity=100;strokeWidth=0.8;rounded=0;startArrow=none;endArrow=block;endFill=0;exitX=0.326;exitY=1.02;entryX=0.449;entryY=0.01;entryPerimeter=0;lucidId=uX7T4NkY_U0I;exitDx=0;exitDy=0;entryDx=0;entryDy=0;exitPerimeter=0;" edge="1" parent="1" source="L-fSFMzXYgNjUHeJhhS1-81" target="L-fSFMzXYgNjUHeJhhS1-80">
          <mxGeometry width="100" height="100" relative="1" as="geometry">
            <Array as="points" />
          </mxGeometry>
        </mxCell>
        <mxCell id="L-fSFMzXYgNjUHeJhhS1-89" style="edgeStyle=orthogonalEdgeStyle;rounded=0;orthogonalLoop=1;jettySize=auto;html=1;exitX=1;exitY=0.5;exitDx=0;exitDy=0;dashed=1;entryX=0;entryY=0.5;entryDx=0;entryDy=0;" edge="1" parent="1" source="L-fSFMzXYgNjUHeJhhS1-90" target="L-fSFMzXYgNjUHeJhhS1-81">
          <mxGeometry relative="1" as="geometry">
            <Array as="points">
              <mxPoint x="30" y="130" />
            </Array>
            <mxPoint x="287.35640687119326" y="-86.81980515339501" as="targetPoint" />
          </mxGeometry>
        </mxCell>
        <mxCell id="L-fSFMzXYgNjUHeJhhS1-90" value="Синхронизация страницы с новыми блоками" style="html=1;overflow=block;blockSpacing=1;whiteSpace=wrap;ellipse;fontSize=13;spacing=3.8;strokeColor=#3a414a;strokeOpacity=100;rounded=1;absoluteArcSize=1;arcSize=9;strokeWidth=0.8;lucidId=AU7TzXfY.7xf;" vertex="1" parent="1">
          <mxGeometry x="-109.99999999999989" y="85" width="120" height="90" as="geometry" />
        </mxCell>
        <mxCell id="L-fSFMzXYgNjUHeJhhS1-92" value="включает." style="text;html=1;align=center;verticalAlign=middle;resizable=0;points=[];autosize=1;strokeColor=none;fillColor=none;" vertex="1" parent="1">
          <mxGeometry x="50" y="365" width="80" height="30" as="geometry" />
        </mxCell>
        <mxCell id="L-fSFMzXYgNjUHeJhhS1-93" value="включает." style="text;html=1;align=center;verticalAlign=middle;resizable=0;points=[];autosize=1;strokeColor=none;fillColor=none;" vertex="1" parent="1">
          <mxGeometry x="30" y="235" width="80" height="30" as="geometry" />
        </mxCell>
        <mxCell id="L-fSFMzXYgNjUHeJhhS1-95" value="расширяет" style="text;html=1;align=center;verticalAlign=middle;resizable=0;points=[];autosize=1;strokeColor=none;fillColor=none;" vertex="1" parent="1">
          <mxGeometry x="20.000000000000114" y="100" width="80" height="30" as="geometry" />
        </mxCell>
        <mxCell id="L-fSFMzXYgNjUHeJhhS1-102" style="edgeStyle=orthogonalEdgeStyle;rounded=0;orthogonalLoop=1;jettySize=auto;html=1;exitX=0.5;exitY=0;exitDx=0;exitDy=0;endArrow=none;endFill=0;" edge="1" parent="1" source="L-fSFMzXYgNjUHeJhhS1-97">
          <mxGeometry relative="1" as="geometry">
            <mxPoint x="380" y="500" as="targetPoint" />
          </mxGeometry>
        </mxCell>
        <mxCell id="L-fSFMzXYgNjUHeJhhS1-97" value="Выбор новостей для домена" style="html=1;overflow=block;blockSpacing=1;whiteSpace=wrap;ellipse;fontSize=13;spacing=3.8;strokeColor=#3a414a;strokeOpacity=100;rounded=1;absoluteArcSize=1;arcSize=9;strokeWidth=0.8;lucidId=YT7TCHDm60Qj;" vertex="1" parent="1">
          <mxGeometry x="320" y="550" width="120" height="90" as="geometry" />
        </mxCell>
        <mxCell id="L-fSFMzXYgNjUHeJhhS1-103" style="edgeStyle=orthogonalEdgeStyle;rounded=0;orthogonalLoop=1;jettySize=auto;html=1;exitX=0.5;exitY=0;exitDx=0;exitDy=0;endArrow=none;endFill=0;" edge="1" parent="1" source="L-fSFMzXYgNjUHeJhhS1-98">
          <mxGeometry relative="1" as="geometry">
            <mxPoint x="440" y="470" as="targetPoint" />
            <Array as="points">
              <mxPoint x="557" y="470" />
            </Array>
          </mxGeometry>
        </mxCell>
        <mxCell id="L-fSFMzXYgNjUHeJhhS1-98" value="Выбор отзывов для домена" style="html=1;overflow=block;blockSpacing=1;whiteSpace=wrap;ellipse;fontSize=13;spacing=3.8;strokeColor=#3a414a;strokeOpacity=100;rounded=1;absoluteArcSize=1;arcSize=9;strokeWidth=0.8;lucidId=YT7TCHDm60Qj;" vertex="1" parent="1">
          <mxGeometry x="497" y="560" width="120" height="90" as="geometry" />
        </mxCell>
      </root>
    </mxGraphModel>
  </diagram>
</mxfile>
